<?xml version="1.0" encoding="utf-8"?>
<!-- Generator: Adobe Illustrator 16.0.0, SVG Export Plug-In . SVG Version: 6.00 Build 0)  -->
<!DOCTYPE svg PUBLIC "-//W3C//DTD SVG 1.1//EN" "http://www.w3.org/Graphics/SVG/1.1/DTD/svg11.dtd">
<svg version="1.1" id="Version_1.0" xmlns="http://www.w3.org/2000/svg" xmlns:xlink="http://www.w3.org/1999/xlink" x="0px"
	 y="0px" width="612px" height="792px" viewBox="0 0 612 792" enable-background="new 0 0 612 792" xml:space="preserve">

<path id="main" stroke="#000000" stroke-width="5" d="M345.262,440.131c-6.045,0-13.537-1.449-22.477-4.363
	c-26.63-8.481-47.885-23.343-63.766-44.575c-1.347-1.785-4.479-7.364-9.397-16.752c-4.26-8.031-6.945-15.853-8.054-23.455h86.233
	c0,1.566,0,3.24,0,5.025c0,9.616,1.566,18.882,4.697,27.823c4.699,12.734,10.189,23.017,16.449,30.824
	c7.156,8.492,14.318,16.99,21.482,25.474L345.262,440.131L345.262,440.131z M323.139,356.229h-75.87
	c12.972,37.453,38.818,62.354,77.526,74.688c8.725,2.651,15.889,3.971,21.479,3.971h13.764
	C335.883,412.639,323.586,386.42,323.139,356.229z"/>
</svg>
