<?xml version="1.0" encoding="utf-8"?>
<!-- Generator: Adobe Illustrator 16.0.0, SVG Export Plug-In . SVG Version: 6.00 Build 0)  -->
<!DOCTYPE svg PUBLIC "-//W3C//DTD SVG 1.1//EN" "http://www.w3.org/Graphics/SVG/1.1/DTD/svg11.dtd">
<svg version="1.1" id="Version_1.0" xmlns="http://www.w3.org/2000/svg" xmlns:xlink="http://www.w3.org/1999/xlink" x="0px"
	 y="0px" width="612px" height="792px" viewBox="0 0 612 792" enable-background="new 0 0 612 792" xml:space="preserve">

<g id="main">
	<g id="symbol">
		<line fill="none" stroke="#000000" stroke-width="5" x1="221" y1="481" x2="388.108" y2="311"/>
		<line fill="none" stroke="#000000" stroke-width="5" x1="221" y1="311" x2="391" y2="481"/>
	</g>
	<path fill="none" stroke="#000000" stroke-width="5" d="M156.398,395.398c0,12.438-9.621,22.519-21.487,22.519"/>
	<path fill="none" stroke="#000000" stroke-width="5" d="M156.398,396.268c0-12.436,9.621-22.518,21.488-22.518
		c11.867,0,21.487,10.082,21.487,22.518"/>
	<path fill="none" stroke="#000000" stroke-width="5" d="M242.605,395.398c0,12.438-9.62,22.519-21.487,22.519
		c-11.867,0-21.489-10.081-21.489-22.519"/>
	<path fill="none" stroke="#000000" stroke-width="5" d="M242.605,396.268c0-12.436,9.621-22.518,21.489-22.518
		c11.867,0,21.486,10.082,21.486,22.518"/>
	<path fill="none" stroke="#000000" stroke-width="5" d="M328.555,395.398c0,12.438-9.621,22.519-21.485,22.519
		c-11.869,0-21.488-10.081-21.488-22.519"/>
	<path fill="none" stroke="#000000" stroke-width="5" d="M328.555,396.268c0-12.436,9.62-22.518,21.49-22.518
		c11.867,0,21.487,10.082,21.487,22.518"/>
	<path fill="none" stroke="#000000" stroke-width="5" d="M414.504,395.398c0,12.438-9.62,22.519-21.49,22.519
		c-11.865,0-21.486-10.081-21.486-22.519"/>
	<path fill="none" stroke="#000000" stroke-width="5" d="M414.504,396.268c0-12.436,9.62-22.518,21.486-22.518
		c11.87,0,21.492,10.082,21.492,22.518"/>
	<path fill="none" stroke="#000000" stroke-width="5" d="M478.966,417.917c-11.866,0-21.484-10.081-21.484-22.519"/>
</g>
</svg>
