<?xml version="1.0" encoding="utf-8"?>
<!-- Generator: Adobe Illustrator 16.0.0, SVG Export Plug-In . SVG Version: 6.00 Build 0)  -->
<!DOCTYPE svg PUBLIC "-//W3C//DTD SVG 1.1//EN" "http://www.w3.org/Graphics/SVG/1.1/DTD/svg11.dtd">
<svg version="1.1" id="Version_1.0" xmlns="http://www.w3.org/2000/svg" xmlns:xlink="http://www.w3.org/1999/xlink" x="0px" y="0px"
	 width="612px" height="792px" viewBox="0 0 612 792" enable-background="new 0 0 612 792" xml:space="preserve">

<g id="mod1">
	<path stroke="#000000" stroke-width="8" d="M305.151,338.686c-1.019-1.962-2.107-3.912-3.274-5.822
		c-5.833-9.553-13.615-18.157-24.409-22.803c6.389-2.277,12.003-6.881,16.803-11.424c1.19-1.246,2.327-2.543,3.406-3.877
		c3.39-3.8,5.446-8.132,8.096-12.511c2.356,4.519,5.272,8.659,8.624,12.43c1.116,1.258,2.28,2.474,3.488,3.649
		c4.39,4.737,9.45,8.526,15.652,11.633c-5.729,3.122-10.965,6.802-15.487,11.141c-1.131,1.085-2.217,2.21-3.248,3.371
		C312,328,310,332,307.197,335.805C305.958,337.615,305.151,338.686,305.151,338.686z"/>
</g>
</svg>
