<?xml version="1.0" encoding="utf-8"?>
<!-- Generator: Adobe Illustrator 16.0.0, SVG Export Plug-In . SVG Version: 6.00 Build 0)  -->
<!DOCTYPE svg PUBLIC "-//W3C//DTD SVG 1.1//EN" "http://www.w3.org/Graphics/SVG/1.1/DTD/svg11.dtd">
<svg version="1.1" id="Version_1.0" xmlns="http://www.w3.org/2000/svg" xmlns:xlink="http://www.w3.org/1999/xlink" x="0px" y="0px"
	 width="612px" height="792px" viewBox="0 0 612 792" enable-background="new 0 0 612 792" xml:space="preserve">

<g id="main">
	<path id="_96730264" d="M279.68,316.76h50.379v18.37H279.68V316.76z M263.95,315.22v19.91h-7.92c-16.28,0-17.16,11.88-23.1,20.46
		c-4.84,7.04-20.46,7.26-20.46,23.65v75.13h184.8v-70.95c0-7.81-1.869-13.2-5.609-17.49c-3.74-4.18-9.9-5.06-13.971-9.13
		c-7.92-7.92-5.5-21.67-25.079-21.67h-7.261v-19.47c0-10.56-8.359-16.28-19.47-16.28h-42.02
		C273.19,299.38,263.95,305.65,263.95,315.22L263.95,315.22L263.95,315.22z"/>
	<polygon fill="#FFFFFF" points="281.5,395.15 262.4,406.4 273.75,426.2 293.05,415.1 293.1,437.2 315.9,437.2 315.9,415.2 
		335.2,426.25 346.75,406.6 327.65,395.2 346.85,384 335.25,364.2 315.95,375.3 315.9,352.95 293.1,352.95 293.1,375.2 273.8,364.2 
		262.45,384 	"/>
</g>
</svg>
