<?xml version="1.0" encoding="utf-8"?>
<!-- Generator: Adobe Illustrator 16.0.0, SVG Export Plug-In . SVG Version: 6.00 Build 0)  -->
<!DOCTYPE svg PUBLIC "-//W3C//DTD SVG 1.1//EN" "http://www.w3.org/Graphics/SVG/1.1/DTD/svg11.dtd">
<svg version="1.1" id="Version_1.0" xmlns="http://www.w3.org/2000/svg" xmlns:xlink="http://www.w3.org/1999/xlink" x="0px" y="0px"
	 width="612px" height="792px" viewBox="0 0 612 792" enable-background="new 0 0 612 792" xml:space="preserve">

<g id="main">
	<rect x="267" y="447" fill="#FFFFFF" width="34" height="25"/>
	<path fill="#FFFFFF" stroke="#000000" stroke-width="4" d="M216.5,427.289c-28.528-31.122,26.641-36.401,44-42
		c13.876-4.477,13.567-16.276,23.5-23.5c12.984-9.443,34.969-1.816,49-10c11.29-6.586,23.494-27.5,36.5-29
		c23.291-2.688,34.995,33.341,25,50c-7.7,12.833-30.139,7.548-38.5,18c-12.154,15.191,3.345,34.9-21.5,42"/>
	<rect x="216" y="426" stroke="#000000" width="130" height="22"/>
	<line fill="none" stroke="#000000" stroke-width="6" x1="267" y1="442" x2="267" y2="472"/>
	<line fill="none" stroke="#000000" stroke-width="6" x1="301" y1="443" x2="301" y2="472"/>
</g>
</svg>
