<?xml version="1.0" encoding="utf-8"?>
<!-- Generator: Adobe Illustrator 16.0.0, SVG Export Plug-In . SVG Version: 6.00 Build 0)  -->
<!DOCTYPE svg PUBLIC "-//W3C//DTD SVG 1.1//EN" "http://www.w3.org/Graphics/SVG/1.1/DTD/svg11.dtd">
<svg version="1.1" id="Version_1.0" xmlns="http://www.w3.org/2000/svg" xmlns:xlink="http://www.w3.org/1999/xlink" x="0px"
	 y="0px" width="612px" height="792px" viewBox="0 0 612 792" enable-background="new 0 0 612 792" xml:space="preserve">

<g id="main">
	<path fill="none" stroke="#000000" stroke-width="5" d="M170.066,392.398c0,12.438-8.69,22.519-19.408,22.519"/>
	<path fill="none" stroke="#000000" stroke-width="5" d="M170.066,393.268c0-12.436,8.689-22.518,19.408-22.518
		c10.718,0,19.408,10.082,19.408,22.518"/>
	<path fill="none" stroke="#000000" stroke-width="5" d="M247.93,392.398c0,12.438-8.689,22.519-19.408,22.519
		c-10.718,0-19.409-10.081-19.409-22.519"/>
	<path fill="none" stroke="#000000" stroke-width="5" d="M247.93,393.268c0-12.436,8.689-22.518,19.409-22.518
		c10.718,0,19.407,10.082,19.407,22.518"/>
	<path fill="none" stroke="#000000" stroke-width="5" d="M325.561,392.398c0,12.438-8.688,22.519-19.405,22.519
		c-10.72,0-19.409-10.081-19.409-22.519"/>
	<path fill="none" stroke="#000000" stroke-width="5" d="M325.561,393.268c0-12.436,8.689-22.518,19.409-22.518
		s19.407,10.082,19.407,22.518"/>
	<path fill="none" stroke="#000000" stroke-width="5" d="M403.191,392.398c0,12.438-8.688,22.519-19.408,22.519
		c-10.719,0-19.407-10.081-19.407-22.519"/>
	<path fill="none" stroke="#000000" stroke-width="5" d="M403.191,393.268c0-12.436,8.689-22.518,19.407-22.518
		c10.721,0,19.409,10.082,19.409,22.518"/>
	<path fill="none" stroke="#000000" stroke-width="5" d="M461.415,414.917c-10.718,0-19.406-10.081-19.406-22.519"/>
</g>
</svg>
