<?xml version="1.0" encoding="utf-8"?>
<!-- Generator: Adobe Illustrator 16.0.0, SVG Export Plug-In . SVG Version: 6.00 Build 0)  -->
<!DOCTYPE svg PUBLIC "-//W3C//DTD SVG 1.1//EN" "http://www.w3.org/Graphics/SVG/1.1/DTD/svg11.dtd">
<svg version="1.1" id="Version_1.0" xmlns="http://www.w3.org/2000/svg" xmlns:xlink="http://www.w3.org/1999/xlink" x="0px" y="0px"
	 width="612px" height="792px" viewBox="0 0 612 792" enable-background="new 0 0 612 792" xml:space="preserve">

<g id="main">
	<g transform="scale(150) translate(0.72 0.73) translate(-0.66 -0.54)">
		<path id="_65846384" fill="#FFFFFF" d="M1.6,2.569v0.107h0.089V2.48C1.677,2.488,1.6,2.558,1.6,2.569z"/>
		<polygon id="_65247944" fill="#FFFFFF" points="1.799,2.371 1.796,2.676 1.904,2.676 1.903,2.269 		"/>
		<path id="_64268320" fill="#FFFFFF" d="M2.029,2.676h0.107V2.377c0-0.011-0.094-0.098-0.107-0.107V2.676z"/>
		<path id="_64249792" fill="#FFFFFF" d="M2.243,2.676h0.089V2.578c0-0.017-0.001-0.002,0.004-0.012L2.243,2.48V2.676z"/>
		<polygon id="_94571432" fill="#FFFFFF" points="1.965,3.155 2.448,2.69 1.483,2.69 		"/>
		<path id="_94539784" d="M1.483,2.69h0.965L1.965,3.155L1.483,2.69z M2.029,2.27c0.013,0.009,0.107,0.096,0.107,0.107v0.299H2.029
			V2.27z M1.903,2.269l0.001,0.407H1.796l0.003-0.305L1.903,2.269L1.903,2.269z M1.6,2.569c0-0.011,0.078-0.081,0.089-0.089v0.197
			H1.6V2.569z M2.243,2.48l0.093,0.086C2.331,2.577,2.332,2.561,2.332,2.578v0.098H2.243V2.48z M2.479,2.685L1.967,2.184l-0.512,0.5
			l0.511,0.498L2.479,2.685z"/>
	</g>
	<text transform="matrix(1 0 0 1 232.2461 347)" font-family="sans-serif" font-size="52">STOR</text>
</g>
</svg>
