<?xml version="1.0" encoding="utf-8"?>
<!-- Generator: Adobe Illustrator 16.0.0, SVG Export Plug-In . SVG Version: 6.00 Build 0)  -->
<!DOCTYPE svg PUBLIC "-//W3C//DTD SVG 1.1//EN" "http://www.w3.org/Graphics/SVG/1.1/DTD/svg11.dtd">
<svg version="1.1" id="Version_1.0" xmlns="http://www.w3.org/2000/svg" xmlns:xlink="http://www.w3.org/1999/xlink" x="0px"
	 y="0px" width="612px" height="792px" viewBox="0 0 612 792" enable-background="new 0 0 612 792" xml:space="preserve">

<g id="main">
	<path fill="none" stroke="#000000" stroke-width="5" d="M147.176,398.398c0,12.438-10.082,22.519-22.518,22.519"/>
	<path fill="none" stroke="#000000" stroke-width="5" d="M147.176,399.268c0-12.436,10.082-22.518,22.519-22.518
		c12.436,0,22.518,10.082,22.518,22.518"/>
	<path fill="none" stroke="#000000" stroke-width="5" d="M237.518,398.398c0,12.438-10.081,22.519-22.518,22.519
		c-12.436,0-22.519-10.081-22.519-22.519"/>
	<path fill="none" stroke="#000000" stroke-width="5" d="M237.518,399.268c0-12.436,10.082-22.518,22.519-22.518
		c12.436,0,22.517,10.082,22.517,22.518"/>
	<path fill="none" stroke="#000000" stroke-width="5" d="M327.59,398.398c0,12.438-10.082,22.519-22.517,22.519
		c-12.438,0-22.519-10.081-22.519-22.519"/>
	<path fill="none" stroke="#000000" stroke-width="5" d="M327.59,399.268c0-12.436,10.082-22.518,22.521-22.518
		c12.437,0,22.518,10.082,22.518,22.518"/>
	<path fill="none" stroke="#000000" stroke-width="5" d="M417.662,398.398c0,12.438-10.082,22.519-22.521,22.519
		c-12.436,0-22.518-10.081-22.518-22.519"/>
	<path fill="none" stroke="#000000" stroke-width="5" d="M417.662,399.268c0-12.436,10.082-22.518,22.518-22.518
		c12.438,0,22.521,10.082,22.521,22.518"/>
	<path fill="none" stroke="#000000" stroke-width="5" d="M485.216,420.917c-12.436,0-22.517-10.081-22.517-22.519"/>
	<path fill="none" stroke="#000000" stroke-width="5" d="M246,349.705c-60,0-60,92.545,0,92.545h120c60,0,60-92.545,0-92.545H246
		L246,349.705z"/>
</g>
<rect id="greyBox" x="125.985" y="277" display="none" fill="none" stroke="#CCCCCC" stroke-width="10" width="359.861" height="242.5"/>
</svg>
