<?xml version="1.0" encoding="utf-8"?>
<!-- Generator: Adobe Illustrator 16.0.0, SVG Export Plug-In . SVG Version: 6.00 Build 0)  -->
<!DOCTYPE svg PUBLIC "-//W3C//DTD SVG 1.1//EN" "http://www.w3.org/Graphics/SVG/1.1/DTD/svg11.dtd">
<svg version="1.1" id="Version_1.0" xmlns="http://www.w3.org/2000/svg" xmlns:xlink="http://www.w3.org/1999/xlink" x="0px" y="0px"
	 width="612px" height="792px" viewBox="0 0 612 792" enable-background="new 0 0 612 792" xml:space="preserve">

<g id="main">
	<path id="_40678448" d="M264.8,331.6h32.9c7.6,0,15.5,9.5,15.1,18.2c-0.3,9-7.3,16.6-16.3,16.6h-31.7V331.6z M243,446.3h21.8v-55.9
		h5.9c1.4,0,34.1,40.3,34.1,42.9c0,1.5-34.1,41.602-37.6,48.2l26.2-0.2l25.7-30.5l23.9,30.8l27.2-0.1l-38-48.3l36.1-44.5l-25.5-0.3
		l-24.2,27l-18.5-25c21.3-5,35.3-17.1,35.3-42.9c0-20.2-17.602-38.2-37.602-38.2H243V446.3z"/>
</g>
</svg>
