<?xml version="1.0" encoding="utf-8"?>
<!-- Generator: Adobe Illustrator 16.0.0, SVG Export Plug-In . SVG Version: 6.00 Build 0)  -->
<!DOCTYPE svg PUBLIC "-//W3C//DTD SVG 1.1//EN" "http://www.w3.org/Graphics/SVG/1.1/DTD/svg11.dtd">
<svg version="1.1" id="Version_1.0" xmlns="http://www.w3.org/2000/svg" xmlns:xlink="http://www.w3.org/1999/xlink" x="0px" y="0px"
	 width="612px" height="792px" viewBox="0 0 612 792" enable-background="new 0 0 612 792" xml:space="preserve">

<g id="main">
	<polyline fill="none" stroke="#000000" stroke-width="3.5114" points="226.583,428.003 253.796,406.973 248.798,375.143 
		269.9,390.49 276.01,362.071 293.781,395.606 302.667,352.408 314.885,385.375 334.877,360.934 338.765,392.764 358.757,375.712 
		358.757,410.951 382.638,433.119 358.757,453.58 363.756,476.315 340.986,464.948 337.654,493.367 319.883,460.969 
		305.443,507.009 291.004,471.769 278.231,489.957 267.125,455.854 243.8,466.085 251.02,450.171 226.583,428.003 	"/>
	<text transform="matrix(0.9771 0 0 1 254.0615 450.5967)" font-family="sans-serif" font-size="63.9431">IED</text>
	<text transform="matrix(1 0 0 1 282.5 346.75)" font-family="sans-serif" font-size="80">P</text>
</g>
</svg>
