<?xml version="1.0" encoding="utf-8"?>
<!-- Generator: Adobe Illustrator 16.0.0, SVG Export Plug-In . SVG Version: 6.00 Build 0)  -->
<!DOCTYPE svg PUBLIC "-//W3C//DTD SVG 1.1//EN" "http://www.w3.org/Graphics/SVG/1.1/DTD/svg11.dtd">
<svg version="1.1" id="Version_1.0" xmlns="http://www.w3.org/2000/svg" xmlns:xlink="http://www.w3.org/1999/xlink" x="0px" y="0px"
	 width="612px" height="792px" viewBox="0 0 612 792" enable-background="new 0 0 612 792" xml:space="preserve">

<g id="main">
	<polyline fill="none" stroke="#000000" stroke-width="8" points="191.4,394.2 230.6,364.6 223.4,319.8 253.8,341.4 262.6,301.4 
		288.2,348.6 301,287.8 318.6,334.2 347.4,299.8 353,344.6 381.8,320.6 381.8,370.2 416.2,401.4 381.8,430.2 389,462.2 356.2,446.2 
		351.4,486.2 325.8,440.6 305,505.4 284.2,455.8 265.8,481.4 249.8,433.4 216.2,447.8 226.6,425.4 191.4,394.2 	"/>
	<line fill="none" stroke="#000000" stroke-width="8" x1="306" y1="443" x2="306" y2="373"/>
	<polyline fill="none" stroke="#000000" stroke-width="8" points="286,373 306,353 326,373 	"/>
	<polyline fill="none" stroke="#000000" stroke-width="8" points="286,393 306,373 326,393 	"/>
</g>
</svg>
