<?xml version="1.0" encoding="utf-8"?>
<!-- Generator: Adobe Illustrator 14.0.0, SVG Export Plug-In . SVG Version: 6.00 Build 43363)  -->
<!DOCTYPE svg PUBLIC "-//W3C//DTD SVG 1.1//EN" "http://www.w3.org/Graphics/SVG/1.1/DTD/svg11.dtd">
<svg version="1.1" id="Version_1.0" xmlns="http://www.w3.org/2000/svg" xmlns:xlink="http://www.w3.org/1999/xlink" x="0px" y="0px"
	 width="612px" height="792px" viewBox="0 0 612 792" enable-background="new 0 0 612 792" xml:space="preserve">

<g id="main">
	<g transform="translate(166 105) scale(5 5)">
		<path d="M36.622,44.146l-2.604,0.023c0-2.246-0.223-3.735-0.671-4.465c-0.673-1.517-2.268-2.276-4.787-2.276
			c-2.353,0-3.92,0.757-4.705,2.27c-0.449,0.897-0.672,2.494-0.672,4.792V79.05h-2.629V44.475c0-3.309,0.505-5.691,1.515-7.151
			c1.178-1.681,3.336-2.523,6.476-2.523c3.194,0,5.382,0.787,6.56,2.358C36.115,38.506,36.622,40.836,36.622,44.146z"/>
	</g>
</g>
</svg>
