<?xml version="1.0" encoding="utf-8"?>
<!-- Generator: Adobe Illustrator 16.0.0, SVG Export Plug-In . SVG Version: 6.00 Build 0)  -->
<!DOCTYPE svg PUBLIC "-//W3C//DTD SVG 1.1//EN" "http://www.w3.org/Graphics/SVG/1.1/DTD/svg11.dtd">
<svg version="1.1" id="Version_1.0" xmlns="http://www.w3.org/2000/svg" xmlns:xlink="http://www.w3.org/1999/xlink" x="0px"
	 y="0px" width="612px" height="792px" viewBox="0 0 612 792" enable-background="new 0 0 612 792" xml:space="preserve">

<g id="main">
	<line fill="none" stroke="#000000" stroke-width="10" x1="173" y1="448" x2="437" y2="448"/>
	<g>
		<path d="M303.614,358.29c-3.927,9.45-5.342,20.448-5.836,28.059c-1.05,16.181,0.969,35.489,7.039,49.52
			c-5.664-2.129-10.553-5.532-14.482-10.129c-6.459-7.557-10.016-17.819-10.016-28.898c0-11.079,3.557-21.342,10.016-28.898
			C293.982,363.674,298.458,360.435,303.614,358.29 M320.474,347.68c-0.556,0-2.045,0.511-0.378,0.511
			C320.796,347.808,320.751,347.68,320.474,347.68L320.474,347.68z M320.096,348.191c-62.371,0-62.371,97.299,0,97.299
			c-2.152,0-0.297,0.831,0.421,0.831c0.358,0,0.433-0.208-0.421-0.831C299.91,430.747,298.719,359.903,320.096,348.191
			L320.096,348.191z"/>
	</g>
</g>
</svg>
