<?xml version="1.0" encoding="utf-8"?>
<!-- Generator: Adobe Illustrator 16.0.0, SVG Export Plug-In . SVG Version: 6.00 Build 0)  -->
<!DOCTYPE svg PUBLIC "-//W3C//DTD SVG 1.1//EN" "http://www.w3.org/Graphics/SVG/1.1/DTD/svg11.dtd">
<svg version="1.1" id="Version_1.0" xmlns="http://www.w3.org/2000/svg" xmlns:xlink="http://www.w3.org/1999/xlink" x="0px" y="0px"
	 width="612px" height="792px" viewBox="0 0 612 792" enable-background="new 0 0 612 792" xml:space="preserve">

<g id="main">
	<path d="M288.3,369.4h42v23.3c-6.399,0-18.3,3.899-22.5,2.5c-5.8-2-13.5-5-19.5-6.4V369.4L288.3,369.4z M213.4,369.4h65.2v23.9
		c0,2.2,10.2,5,12.4,5.7c4.7,1.6,8.9,3.4,13.7,5c5,1.7,8.399,1,14.899-0.2c3.9-0.7,14.2-1.1,16.5-2.2
		c1.601,6.7,11.601,34.9,11.601,38.101c0,4-3.101,9.899-3.2,14.2l53.8,0.1L377.9,389.3l19.5-19.2c-1.9-4.1-10.2-33.6-12.9-33.6
		H213.4V369.4L213.4,369.4z"/>
</g>
</svg>
