<?xml version="1.0" encoding="utf-8"?>
<!-- Generator: Adobe Illustrator 16.0.0, SVG Export Plug-In . SVG Version: 6.00 Build 0)  -->
<!DOCTYPE svg PUBLIC "-//W3C//DTD SVG 1.1//EN" "http://www.w3.org/Graphics/SVG/1.1/DTD/svg11.dtd">
<svg version="1.1" id="Version_1.0" xmlns="http://www.w3.org/2000/svg" xmlns:xlink="http://www.w3.org/1999/xlink" x="0px" y="0px"
	 width="612px" height="792px" viewBox="0 0 612 792" enable-background="new 0 0 612 792" xml:space="preserve">

<g id="main">
	<ellipse stroke="#000000" stroke-width="0.823" cx="306.378" cy="392.004" rx="24.69" ry="24.69"/>
	<path id="_x31_" stroke="#000000" stroke-width="0.823" d="M264.841,320.651c24.69-14.814,57.61-14.814,82.302,0l-22.224,38.681
		c-10.698-6.584-27.159-6.584-37.857,0L264.841,320.651z"/>
	<path id="_x32_" stroke="#000000" stroke-width="0.823" d="M387.848,391.687c0.504,28.79-15.937,57.312-41.101,71.305
		l-22.415-38.568c11.047-5.981,19.269-20.242,18.904-32.8L387.848,391.687z"/>
	<path id="_x33_" stroke="#000000" stroke-width="0.823" d="M265.16,462.211c-25.146-14.025-41.549-42.569-41.006-71.357
		l44.61-0.007c-0.378,12.558,7.823,26.829,18.863,32.826L265.16,462.211z"/>
</g>
</svg>
