<?xml version="1.0" encoding="utf-8"?>
<!-- Generator: Adobe Illustrator 16.0.0, SVG Export Plug-In . SVG Version: 6.00 Build 0)  -->
<!DOCTYPE svg PUBLIC "-//W3C//DTD SVG 1.1//EN" "http://www.w3.org/Graphics/SVG/1.1/DTD/svg11.dtd">
<svg version="1.1" id="Version_1.0" xmlns="http://www.w3.org/2000/svg" xmlns:xlink="http://www.w3.org/1999/xlink" x="0px" y="0px"
	 width="612px" height="792px" viewBox="0 0 612 792" enable-background="new 0 0 612 792" xml:space="preserve">

<g id="main">
	<polyline fill="none" stroke="#000000" stroke-width="5" points="192.4,394.2 231.6,364.6 224.4,319.8 254.8,341.4 263.6,301.4 
		289.2,348.6 302,287.8 319.6,334.2 348.4,299.8 354,344.6 382.8,320.6 382.8,370.2 417.2,401.4 382.8,430.2 390,462.2 357.2,446.2 
		352.4,486.2 326.8,440.6 306,505.4 285.2,455.8 266.8,481.4 250.8,433.4 217.2,447.8 227.6,425.4 192.4,394.2 	"/>
	<text transform="matrix(1 0 0 1 231.9824 426)" font-family="sans-serif" font-size="90">IED</text>
</g>
</svg>
