<?xml version="1.0" encoding="utf-8"?>
<!-- Generator: Adobe Illustrator 14.0.0, SVG Export Plug-In . SVG Version: 6.00 Build 43363)  -->
<!DOCTYPE svg PUBLIC "-//W3C//DTD SVG 1.1//EN" "http://www.w3.org/Graphics/SVG/1.1/DTD/svg11.dtd">
<svg version="1.1" id="Version_1.0" xmlns="http://www.w3.org/2000/svg" xmlns:xlink="http://www.w3.org/1999/xlink" x="0px" y="0px"
	 width="612px" height="792px" viewBox="0 0 612 792" enable-background="new 0 0 612 792" xml:space="preserve">

<g id="main">
	<path fill="none" stroke="#000000" stroke-width="10" d="M359.35,486.502c0-10.745-6.272-19.263-18.81-25.535
		c-9.867-5.076-20.911-7.621-33.149-7.621c-11.958,0-22.858,2.54-32.701,7.621c-12.251,6.272-18.374,14.79-18.374,25.535H359.35z"/>
	<rect x="243.567" y="335.615" width="9.499" height="120.77"/>
	<rect x="361.2" y="338.525" width="10.29" height="117.859"/>
	<polygon points="366.346,415.986 366.346,404.106 248.316,404.502 248.316,415.986 	"/>
	<polygon points="366.346,439.746 366.346,427.867 248.316,428.263 248.316,439.746 	"/>
	<path d="M312.212,290v162.359h-10.687V290C304.683,289.742,308.246,289.742,312.212,290z"/>
</g>
</svg>
