<?xml version="1.0" encoding="utf-8"?>
<!-- Generator: Adobe Illustrator 16.0.0, SVG Export Plug-In . SVG Version: 6.00 Build 0)  -->
<!DOCTYPE svg PUBLIC "-//W3C//DTD SVG 1.1//EN" "http://www.w3.org/Graphics/SVG/1.1/DTD/svg11.dtd">
<svg version="1.1" id="Version_1.0" xmlns="http://www.w3.org/2000/svg" xmlns:xlink="http://www.w3.org/1999/xlink" x="0px" y="0px"
	 width="612px" height="792px" viewBox="0 0 612 792" enable-background="new 0 0 612 792" xml:space="preserve">

<g id="main">
	<path id="_65673176" d="M207.3,397.1l196.3-0.1l-98.2,98.1L207.3,397.1z M374.6,365c1.5,1,15.2,14.7,15.2,15.6v14.9h-15.2V365z
		 M343.8,334.2c1.5,1,15.2,14.7,15.2,15.6v45.7h-15.2V334.2z M282.5,319.3c0-0.9,13.7-14.6,15.2-15.6v91.8h-15.2V319.3z M252,349.8
		c0-0.9,13.7-14.6,15.2-15.6v61.3H252V349.8z M236.3,364.9l0.1,30.5h-14.8V381c0-0.7-0.1-0.7-0.3-1L236.3,364.9z M313.3,303.7
		l15.5,15.3c-0.399,1-0.3-0.3-0.3,1.1v75.4h-15.2V303.7z M197.3,395.4l108.3,108.3l108.1-108.3L305.4,287.3L197.3,395.4z"/>
</g>
</svg>
