<?xml version="1.0" encoding="utf-8"?>
<!-- Generator: Adobe Illustrator 16.0.0, SVG Export Plug-In . SVG Version: 6.00 Build 0)  -->
<!DOCTYPE svg PUBLIC "-//W3C//DTD SVG 1.1//EN" "http://www.w3.org/Graphics/SVG/1.1/DTD/svg11.dtd">
<svg version="1.1" id="Version_1.0" xmlns="http://www.w3.org/2000/svg" xmlns:xlink="http://www.w3.org/1999/xlink" x="0px" y="0px"
	 width="612px" height="792px" viewBox="0 0 612 792" enable-background="new 0 0 612 792" xml:space="preserve">

<g id="main">
	<g id="waves2">
		<path fill="none" stroke="#000000" stroke-width="5" d="M239.603,301.813c0,1.889-0.383,3.688-1.075,5.324
			c-0.692,1.637-1.694,3.111-2.932,4.349c-1.238,1.238-2.712,2.239-4.349,2.932c-1.637,0.693-3.436,1.075-5.325,1.075
			c-1.889,0-3.688-0.383-5.325-1.075"/>
		<path fill="none" stroke="#000000" stroke-width="5" d="M294.324,301.813c0,1.889-0.383,3.688-1.075,5.324
			c-0.692,1.637-1.694,3.111-2.932,4.349c-1.238,1.238-2.712,2.239-4.349,2.932c-1.637,0.693-3.436,1.075-5.325,1.075
			s-3.688-0.383-5.325-1.075c-1.637-0.692-3.111-1.694-4.349-2.932c-1.238-1.238-2.24-2.712-2.932-4.349
			c-0.692-1.637-1.075-3.436-1.075-5.324"/>
		<path fill="none" stroke="#000000" stroke-width="5" d="M239.603,302.053c0-1.889,0.383-3.688,1.075-5.324
			c0.692-1.637,1.694-3.111,2.932-4.349c1.238-1.238,2.712-2.239,4.349-2.932c1.637-0.693,3.436-1.075,5.325-1.075
			c1.889,0,3.688,0.383,5.325,1.075c1.637,0.692,3.111,1.694,4.349,2.932c1.238,1.238,2.24,2.712,2.932,4.349
			s1.075,3.436,1.075,5.324"/>
		<path fill="none" stroke="#000000" stroke-width="5" d="M349.046,301.813c0,1.889-0.383,3.688-1.075,5.324
			c-0.688,1.636-1.688,3.111-2.932,4.349c-1.239,1.238-2.712,2.239-4.349,2.932c-1.642,0.693-3.438,1.075-5.325,1.075
			c-1.893,0-3.688-0.383-5.325-1.075s-3.11-1.694-4.349-2.932c-1.239-1.238-2.239-2.712-2.937-4.349
			c-0.688-1.637-1.075-3.436-1.075-5.324"/>
		<path fill="none" stroke="#000000" stroke-width="5" d="M294.324,302.053c0-1.889,0.383-3.688,1.075-5.324
			s1.694-3.111,2.932-4.349c1.238-1.238,2.712-2.239,4.348-2.932c1.637-0.692,3.436-1.075,5.325-1.075s3.688,0.383,5.324,1.075
			c1.636,0.692,3.111,1.694,4.349,2.932c1.238,1.238,2.239,2.712,2.937,4.349c0.688,1.637,1.07,3.436,1.07,5.324"/>
		<path fill="none" stroke="#000000" stroke-width="5" d="M395.411,314.418c-1.637,0.693-3.438,1.075-5.325,1.075
			s-3.688-0.383-5.325-1.075c-1.637-0.692-3.105-1.694-4.349-2.932c-1.239-1.238-2.239-2.712-2.937-4.349
			c-0.688-1.637-1.07-3.436-1.07-5.324"/>
		<path fill="none" stroke="#000000" stroke-width="5" d="M349.046,302.053c0-1.889,0.383-3.688,1.075-5.324
			c0.691-1.636,1.693-3.111,2.932-4.349c1.239-1.238,2.712-2.239,4.354-2.932c1.636-0.692,3.436-1.075,5.319-1.075
			c1.893,0,3.688,0.383,5.324,1.075c1.642,0.692,3.11,1.694,4.354,2.932c1.234,1.238,2.234,2.712,2.932,4.349
			c0.693,1.637,1.075,3.436,1.075,5.324"/>
	</g>
	<g id="waves1">
		<path fill="none" stroke="#000000" stroke-width="5" d="M239.604,332.305c0,7.556-6.125,13.68-13.68,13.68
			c-7.555,0-13.68-6.124-13.68-13.68"/>
		<path fill="none" stroke="#000000" stroke-width="5" d="M294.325,332.305c0,7.556-6.125,13.68-13.681,13.68
			c-7.555,0-13.68-6.124-13.68-13.68"/>
		<path fill="none" stroke="#000000" stroke-width="5" d="M239.604,332.545c0-7.556,6.125-13.68,13.68-13.68
			c7.555,0,13.68,6.124,13.68,13.68"/>
		<path fill="none" stroke="#000000" stroke-width="5" d="M349.047,332.305c0,7.556-6.125,13.68-13.681,13.68
			c-7.561,0-13.686-6.124-13.686-13.68"/>
		<path fill="none" stroke="#000000" stroke-width="5" d="M294.325,332.545c0-7.556,6.125-13.68,13.68-13.68
			s13.68,6.124,13.68,13.68"/>
		<path fill="none" stroke="#000000" stroke-width="5" d="M403.768,332.305c0,7.556-6.125,13.68-13.681,13.68
			s-13.681-6.124-13.681-13.68"/>
		<path fill="none" stroke="#000000" stroke-width="5" d="M349.047,332.545c0-7.556,6.125-13.68,13.68-13.68
			c7.56,0,13.685,6.124,13.685,13.68"/>
	</g>
</g>
</svg>
