<?xml version="1.0" encoding="utf-8"?>
<!-- Generator: Adobe Illustrator 16.0.0, SVG Export Plug-In . SVG Version: 6.00 Build 0)  -->
<!DOCTYPE svg PUBLIC "-//W3C//DTD SVG 1.1//EN" "http://www.w3.org/Graphics/SVG/1.1/DTD/svg11.dtd">
<svg version="1.1" id="Version_1.0" xmlns="http://www.w3.org/2000/svg" xmlns:xlink="http://www.w3.org/1999/xlink" x="0px"
	 y="0px" width="612px" height="792px" viewBox="0 0 612 792" enable-background="new 0 0 612 792" xml:space="preserve">

<g id="main">
	<ellipse cx="229" cy="365.985" rx="18" ry="18"/>
	<ellipse cx="382.5" cy="364.985" rx="18" ry="18"/>
	<path fill="none" stroke="#000000" stroke-width="5" d="M237,354.75c68,21.148,79.333,33.233,107.667,87.613"/>
	<path fill="none" stroke="#000000" stroke-width="5" d="M373,354.75c-68,21.148-79.333,33.233-107.667,87.613"/>
	<line fill="none" stroke="#000000" stroke-width="5" stroke-miterlimit="1" x1="126.5" y1="516" x2="485.5" y2="276"/>
	<g id="symbol">
		<path fill="none" stroke="#000000" stroke-width="5" d="M250.552,441c-22.895,0-41.457-19.98-41.457-44.626
			c0-24.646,18.562-44.624,41.457-44.624"/>
		<path fill="none" stroke="#000000" stroke-width="5" d="M361.448,351.75c22.896,0,41.457,19.979,41.457,44.624
			c0,24.645-18.562,44.626-41.457,44.626"/>
		<line fill="none" stroke="#000000" stroke-width="5" x1="250.552" y1="351.75" x2="361.448" y2="351.75"/>
		<line fill="none" stroke="#000000" stroke-width="5" x1="250.552" y1="441" x2="361.448" y2="441"/>
	</g>
</g>
<rect id="greyBox" x="126.5" y="276" display="none" fill="none" stroke="#C8C8C8" stroke-width="10" width="359" height="240"/>
</svg>
