<?xml version="1.0" encoding="utf-8"?>
<!-- Generator: Adobe Illustrator 16.0.0, SVG Export Plug-In . SVG Version: 6.00 Build 0)  -->
<!DOCTYPE svg PUBLIC "-//W3C//DTD SVG 1.1//EN" "http://www.w3.org/Graphics/SVG/1.1/DTD/svg11.dtd">
<svg version="1.1" id="Version_1.0" xmlns="http://www.w3.org/2000/svg" xmlns:xlink="http://www.w3.org/1999/xlink" x="0px"
	 y="0px" width="612px" height="792px" viewBox="0 0 612 792" enable-background="new 0 0 612 792" xml:space="preserve">

<g id="main">
	<g transform="translate(20 50) scale(0.9 0.9)">
		<path fill="none" stroke="#000000" stroke-width="5" d="M317.777,346.591c24.15,0,43.722,19.576,43.722,43.726
			c0,24.145-19.575,43.723-43.722,43.723c-24.148,0-43.723-19.578-43.723-43.723C274.053,366.167,293.629,346.591,317.777,346.591z"
			/>
		<line fill="none" stroke="#000000" stroke-width="5" x1="282.798" y1="366.267" x2="352.756" y2="414.363"/>
		<line fill="none" stroke="#000000" stroke-width="5" x1="282.798" y1="414.363" x2="352.756" y2="366.267"/>
		<line fill="none" stroke="#000000" stroke-width="5" x1="317.777" y1="346.591" x2="317.777" y2="434.04"/>
	</g>
	<g>
		<ellipse fill="none" stroke="#000000" stroke-width="5" cx="306" cy="284.234" rx="6.234" ry="6.234"/>
		<line fill="none" stroke="#000000" stroke-width="5" x1="306" y1="290.469" x2="306" y2="352.814"/>
		<line fill="none" stroke="#000000" stroke-width="5" x1="287.688" y1="294.365" x2="324.313" y2="294.365"/>
		<path stroke="#000000" stroke-width="3" d="M267.034,321.642c19.483,38.966,58.449,38.966,77.932,0
			C325.482,366.453,286.517,366.453,267.034,321.642"/>
		<path stroke="#000000" stroke-width="3" d="M267.034,321.642c3.118,17.535,5.066,17.535,5.066,17.535l5.845-7.793
			c-5.065-1.948-7.014-5.846-9.741-8.573"/>
		<path stroke="#000000" stroke-width="3" d="M344.966,321.642c-3.117,17.535-5.063,17.535-5.063,17.535l-5.848-7.793
			c5.065-1.948,7.017-5.846,9.741-8.573"/>
	</g>
</g>
</svg>
