<?xml version="1.0" encoding="utf-8"?>
<!-- Generator: Adobe Illustrator 16.0.0, SVG Export Plug-In . SVG Version: 6.00 Build 0)  -->
<!DOCTYPE svg PUBLIC "-//W3C//DTD SVG 1.1//EN" "http://www.w3.org/Graphics/SVG/1.1/DTD/svg11.dtd">
<svg version="1.1" id="Version_1.0" xmlns="http://www.w3.org/2000/svg" xmlns:xlink="http://www.w3.org/1999/xlink" x="0px"
	 y="0px" width="612px" height="792px" viewBox="0 0 612 792" enable-background="new 0 0 612 792" xml:space="preserve">

<g id="main">
	<g transform="translate(20 50) scale(0.9 0.9)">
		<path fill="none" stroke="#000000" stroke-width="5" d="M318.888,310.48c34.122,0,61.782,27.66,61.782,61.782
			c0,34.117-27.657,61.778-61.782,61.778c-34.119,0-61.779-27.662-61.779-61.778C257.109,338.14,284.768,310.48,318.888,310.48z"/>
		<line fill="none" stroke="#000000" stroke-width="5" x1="269.465" y1="338.281" x2="368.312" y2="406.238"/>
		<line fill="none" stroke="#000000" stroke-width="5" x1="269.465" y1="406.238" x2="368.312" y2="338.281"/>
		<line fill="none" stroke="#000000" stroke-width="5" x1="318.888" y1="310.48" x2="318.888" y2="434.04"/>
	</g>
	<g transform="translate(40 -30) scale(0.8 0.7)">
		<ellipse fill="none" stroke="#000000" stroke-width="5" cx="271.97" cy="495.271" rx="10.04" ry="10.039"/>
		<ellipse fill="none" stroke="#000000" stroke-width="5" cx="299.771" cy="495.271" rx="10.04" ry="10.039"/>
		<ellipse fill="none" stroke="#000000" stroke-width="5" cx="395.53" cy="495.271" rx="10.04" ry="10.039"/>
		<ellipse fill="none" stroke="#000000" stroke-width="5" cx="367.727" cy="495.271" rx="10.04" ry="10.039"/>
		<line fill="none" stroke="#000000" stroke-width="5" x1="258.069" y1="482.143" x2="409.431" y2="482.143"/>
	</g>
</g>
</svg>
