<?xml version="1.0" encoding="utf-8"?>
<!-- Generator: Adobe Illustrator 16.0.0, SVG Export Plug-In . SVG Version: 6.00 Build 0)  -->
<!DOCTYPE svg PUBLIC "-//W3C//DTD SVG 1.1//EN" "http://www.w3.org/Graphics/SVG/1.1/DTD/svg11.dtd">
<svg version="1.1" id="Version_1.0" xmlns="http://www.w3.org/2000/svg" xmlns:xlink="http://www.w3.org/1999/xlink" x="0px"
	 y="0px" width="612px" height="792px" viewBox="0 0 612 792" enable-background="new 0 0 612 792" xml:space="preserve">

<g id="main">
	<path fill="#FFFFFF" stroke="#000000" stroke-width="5" d="M310.947,384.162c24.048,0.621,42.869,6.209,42.869,13.01
		c0,7.217-21.191,13.066-47.333,13.066c-26.144,0-47.335-5.852-47.335-13.066c0-6.898,19.361-12.548,43.899-13.033l-0.235-14.605
		C263.37,370.266,231.98,382.731,231.98,398c0,15.74,33.354,28.5,74.5,28.5c41.145,0,74.5-12.76,74.5-28.5
		c0-15.143-30.874-27.528-69.855-28.445"/>
	<rect x="300.375" y="348.943" fill="#FFFFFF" stroke="#000000" stroke-width="5" width="11.25" height="61.295"/>
	<rect x="300.375" y="426.5" fill="#FFFFFF" stroke="#000000" stroke-width="5" width="11.25" height="13.75"/>
</g>
</svg>
