<?xml version="1.0" encoding="utf-8"?>
<!-- Generator: Adobe Illustrator 16.0.0, SVG Export Plug-In . SVG Version: 6.00 Build 0)  -->
<!DOCTYPE svg PUBLIC "-//W3C//DTD SVG 1.1//EN" "http://www.w3.org/Graphics/SVG/1.1/DTD/svg11.dtd">
<svg version="1.1" id="Version_1.0" xmlns="http://www.w3.org/2000/svg" xmlns:xlink="http://www.w3.org/1999/xlink" x="0px"
	 y="0px" width="612px" height="792px" viewBox="0 0 612 792" enable-background="new 0 0 612 792" xml:space="preserve">

<g id="main">
	<rect x="373" y="382" fill="#FFFFFF" width="21" height="50"/>
	<rect x="344" y="376" fill="#FFFFFF" width="48" height="26"/>
	<rect x="214" y="383" fill="#FFFFFF" width="23" height="49"/>
	<rect x="217" y="377" fill="#FFFFFF" width="48" height="24"/>
	<line fill="none" stroke="#000000" stroke-width="5" x1="204" y1="433" x2="406" y2="433"/>
	<rect x="266" y="358" fill="#FFFFFF" stroke="#000000" stroke-width="5" width="78" height="74"/>
	<line fill="none" stroke="#000000" stroke-width="5" x1="264" y1="375" x2="233" y2="375"/>
	<line fill="none" stroke="#000000" stroke-width="5" x1="266" y1="402" x2="239" y2="402"/>
	<line fill="none" stroke="#000000" stroke-width="5" x1="344" y1="402" x2="371" y2="402"/>
	<line fill="none" stroke="#000000" stroke-width="5" x1="344" y1="375" x2="377" y2="375"/>
	<line fill="none" stroke="#000000" stroke-width="5" x1="237" y1="431" x2="237" y2="408"/>
	<line fill="none" stroke="#000000" stroke-width="5" x1="373" y1="431" x2="373" y2="409"/>
	<line fill="none" stroke="#000000" stroke-width="5" x1="214" y1="431" x2="214" y2="391"/>
	<line fill="none" stroke="#000000" stroke-width="5" x1="396" y1="431" x2="396" y2="391"/>
	<path fill="none" stroke="#000000" stroke-width="5" d="M213.947,394.666c-0.196-17.013,5.732-19.778,20.667-19.778"/>
	<path fill="none" stroke="#000000" stroke-width="5" d="M243.947,401.999c-7.81-0.627-6.889,0.716-6.889,6.89"/>
	<path fill="none" stroke="#000000" stroke-width="5" d="M368.621,402.027c5.488-1,4.364,2.431,4.445,8.025"/>
	<path fill="none" stroke="#000000" stroke-width="5" d="M396.01,394.971c0.368-17.061-3.777-20.129-20.75-20.055"/>
	<path fill="none" stroke="#000000" stroke-width="5" d="M219.501,377.638l5.778-1.778"/>
	<path fill="none" stroke="#000000" stroke-width="5" d="M372.549,403.514l1.25,3.75"/>
</g>
</svg>
