<?xml version="1.0" encoding="utf-8"?>
<!-- Generator: Adobe Illustrator 16.0.0, SVG Export Plug-In . SVG Version: 6.00 Build 0)  -->
<!DOCTYPE svg PUBLIC "-//W3C//DTD SVG 1.1//EN" "http://www.w3.org/Graphics/SVG/1.1/DTD/svg11.dtd">
<svg version="1.1" id="Version_1.0" xmlns="http://www.w3.org/2000/svg" xmlns:xlink="http://www.w3.org/1999/xlink" x="0px"
	 y="0px" width="612px" height="792px" viewBox="0 0 612 792" enable-background="new 0 0 612 792" xml:space="preserve">

<g id="main">
	<path stroke="#000000" stroke-width="0.5" d="M205.93,353.04c66.7,0,133.41,0,200.11,0c-2.63,19.12,3.97,34.07-1,50.95
		c-8.73,29.64-70.36,38.398-112.06,35.96c-34.51-2.03-78.84-11.49-86.05-35.96C202.48,388.88,208.23,368.8,205.93,353.04z
		 M396.04,399.99c0-12.32,0-24.64,0-36.96c-60.04,0-120.07,0-180.1,0c2.41,12.15-3.18,24.41,0,36.96
		c5.42,21.46,49.67,28.358,77.04,29.97C336.62,432.52,383.53,423.52,396.04,399.99z"/>
</g>
</svg>
