<?xml version="1.0" encoding="utf-8"?>
<!-- Generator: Adobe Illustrator 16.0.0, SVG Export Plug-In . SVG Version: 6.00 Build 0)  -->
<!DOCTYPE svg PUBLIC "-//W3C//DTD SVG 1.1//EN" "http://www.w3.org/Graphics/SVG/1.1/DTD/svg11.dtd">
<svg version="1.1" id="Version_1.0" xmlns="http://www.w3.org/2000/svg" xmlns:xlink="http://www.w3.org/1999/xlink" x="0px"
	 y="0px" width="612px" height="792px" viewBox="0 0 612 792" enable-background="new 0 0 612 792" xml:space="preserve">

<g id="main">
	<g id="symbol">
		<line fill="none" stroke="#000000" stroke-width="5" x1="217.5" y1="475.5" x2="389.5" y2="306.5"/>
	</g>
	<path fill="none" stroke="#000000" stroke-width="5" d="M172.941,388.398c0,12.438-8.634,22.519-19.283,22.519"/>
	<path fill="none" stroke="#000000" stroke-width="5" d="M172.941,389.268c0-12.436,8.633-22.518,19.283-22.518
		c10.649,0,19.283,10.082,19.283,22.518"/>
	<path fill="none" stroke="#000000" stroke-width="5" d="M250.304,388.398c0,12.438-8.633,22.519-19.283,22.519
		c-10.649,0-19.284-10.081-19.284-22.519"/>
	<path fill="none" stroke="#000000" stroke-width="5" d="M250.304,389.268c0-12.436,8.633-22.518,19.284-22.518
		c10.649,0,19.282,10.082,19.282,22.518"/>
	<path fill="none" stroke="#000000" stroke-width="5" d="M327.436,388.398c0,12.438-8.634,22.519-19.28,22.519
		c-10.651,0-19.284-10.081-19.284-22.519"/>
	<path fill="none" stroke="#000000" stroke-width="5" d="M327.436,389.268c0-12.436,8.635-22.518,19.285-22.518
		s19.282,10.082,19.282,22.518"/>
	<path fill="none" stroke="#000000" stroke-width="5" d="M404.566,388.398c0,12.438-8.635,22.519-19.285,22.519
		c-10.649,0-19.283-10.081-19.283-22.519"/>
	<path fill="none" stroke="#000000" stroke-width="5" d="M404.566,389.268c0-12.436,8.634-22.518,19.28-22.518
		c10.651,0,19.286,10.082,19.286,22.518"/>
	<path fill="none" stroke="#000000" stroke-width="5" d="M462.415,410.917c-10.648,0-19.281-10.081-19.281-22.519"/>
</g>
</svg>
