<?xml version="1.0" encoding="utf-8"?>
<!-- Generator: Adobe Illustrator 16.0.0, SVG Export Plug-In . SVG Version: 6.00 Build 0)  -->
<!DOCTYPE svg PUBLIC "-//W3C//DTD SVG 1.1//EN" "http://www.w3.org/Graphics/SVG/1.1/DTD/svg11.dtd">
<svg version="1.1" id="Version_1.0" xmlns="http://www.w3.org/2000/svg" xmlns:xlink="http://www.w3.org/1999/xlink" x="0px" y="0px"
	 width="612px" height="792px" viewBox="0 0 612 792" enable-background="new 0 0 612 792" xml:space="preserve">

<g id="main">
	<polygon id="_65492976" points="322.1,323.8 303.7,313.9 302.1,316.6 320,327.7 302,337.9 303.5,341.4 322.1,330.4 322.1,351.4 
		326.1,351.4 326.2,330.6 344,341.3 345.9,338 327.5,327.7 346.3,316.7 343.7,313.8 326.1,323.8 326.1,303.2 322.1,303.2 	"/>
	<polygon id="_66340648" points="227.6,480 352.3,480 331.1,455 341.8,451.9 313.8,350.3 	"/>
	<polygon id="_65105008" points="335.7,366.2 363.2,461.3 351.6,465.1 375.7,488 383.4,455.5 372,458.9 344.7,363.9 	"/>
</g>
</svg>
