<?xml version="1.0" encoding="utf-8"?>
<!-- Generator: Adobe Illustrator 16.0.0, SVG Export Plug-In . SVG Version: 6.00 Build 0)  -->
<!DOCTYPE svg PUBLIC "-//W3C//DTD SVG 1.1//EN" "http://www.w3.org/Graphics/SVG/1.1/DTD/svg11.dtd">
<svg version="1.1" id="Version_1.0" xmlns="http://www.w3.org/2000/svg" xmlns:xlink="http://www.w3.org/1999/xlink" x="0px" y="0px"
	 width="612px" height="792px" viewBox="0 0 612 792" enable-background="new 0 0 612 792" xml:space="preserve">

<g id="main">
	<g transform="scale(100) translate(0.74 0.66)">
		<path id="_228253800" d="M2.667,3.663H3.06v0.101h0.227v-0.59H3.06V3.27H2.677c-0.01,0-0.065-0.066-0.065-0.086V3.043H2.364V2.837
			h0.307V2.746H1.966v0.091h0.302v0.207H2.047V3.21L2.043,3.206L1.998,3.267L1.569,3.27V3.174H1.347v0.589h0.222v-0.1h0.423
			c0.009,0,0.051,0.061,0.059,0.071c0.012,0.015,0.054,0.047,0.072,0.059c0.048,0.031,0.118,0.061,0.196,0.061h0.015
			c0.088,0,0.146-0.026,0.203-0.059C2.573,3.775,2.657,3.7,2.667,3.663z"/>
	</g>
</g>
</svg>
