<?xml version="1.0" encoding="utf-8"?>
<!-- Generator: Adobe Illustrator 16.0.0, SVG Export Plug-In . SVG Version: 6.00 Build 0)  -->
<!DOCTYPE svg PUBLIC "-//W3C//DTD SVG 1.1//EN" "http://www.w3.org/Graphics/SVG/1.1/DTD/svg11.dtd">
<svg version="1.1" id="Version_1.0" xmlns="http://www.w3.org/2000/svg" xmlns:xlink="http://www.w3.org/1999/xlink" x="0px"
	 y="0px" width="612px" height="792px" viewBox="0 0 612 792" enable-background="new 0 0 612 792" xml:space="preserve">

<g id="main">
	<g transform="translate(10 29) scale(0.9 0.8)">
		<line fill="none" stroke="#000000" stroke-width="5" x1="236.667" y1="376.25" x2="236.667" y2="516.25"/>
		<line fill="none" stroke="#000000" stroke-width="5" x1="396.667" y1="376.25" x2="396.667" y2="516.25"/>
		<line fill="none" stroke="#000000" stroke-width="5" x1="236.667" y1="513.75" x2="396.667" y2="513.75"/>
		<path fill="none" stroke="#000000" stroke-width="5" d="M236.667,379c70,26,90,26,159.998,0"/>
	</g>
	<g>
		<ellipse fill="none" stroke="#000000" stroke-width="5" cx="235" cy="458" rx="13" ry="13"/>
		<ellipse fill="none" stroke="#000000" stroke-width="5" cx="265" cy="458" rx="13" ry="13"/>
		<ellipse fill="none" stroke="#000000" stroke-width="5" cx="356" cy="458" rx="13" ry="13"/>
		<line fill="none" stroke="#000000" stroke-width="5" x1="365" y1="383" x2="405" y2="383"/>
		<line fill="none" stroke="#000000" stroke-width="5" x1="400" y1="358" x2="400" y2="408"/>
	</g>
	<g>
		<line fill="none" stroke="#000000" stroke-width="5" x1="297" y1="348.8" x2="297" y2="438.8"/>
		<line fill="none" stroke="#000000" stroke-width="5" x1="267" y1="346.75" x2="267" y2="438.8"/>
		<line fill="none" stroke="#000000" stroke-width="5" x1="327" y1="343.85" x2="327" y2="438.8"/>
	</g>
</g>
</svg>
