<?xml version="1.0" encoding="utf-8"?>
<!-- Generator: Adobe Illustrator 14.0.0, SVG Export Plug-In . SVG Version: 6.00 Build 43363)  -->
<!DOCTYPE svg PUBLIC "-//W3C//DTD SVG 1.1//EN" "http://www.w3.org/Graphics/SVG/1.1/DTD/svg11.dtd">
<svg version="1.1" id="Version_1.0" xmlns="http://www.w3.org/2000/svg" xmlns:xlink="http://www.w3.org/1999/xlink" x="0px" y="0px"
	 width="612px" height="792px" viewBox="0 0 612 792" enable-background="new 0 0 612 792" xml:space="preserve">

<g id="main">
	<path d="M402.773,411.217c-16.168,28.745-38.168,79.745-79.548,60.15c-2.833-0.845-5.581-1.884-8.23-3.104
		c-11.39-5.302-23.39-13.302-21.39-25.302c4-24-1-45,3-69c1-3,4-5,5.636-6.74c2.242-2,4.583-3.942,6.989-5.82s4.875-3.69,7.375-5.44
		c11-7,22-1,32.041,3.268c2.903,1.343,5.792,2.732,8.709,4.107c8.75,4.125,17.75,8.125,28.25,10.625
		c8.25,1.5,13.125,9.188,15.548,18.149c0.808,2.986,1.343,6.115,1.635,9.202C403.217,404.585,403.234,407.892,402.773,411.217z"/>
	<line fill="none" stroke="#000000" stroke-width="5" x1="214" y1="349.5" x2="281.5" y2="380.5"/>
	<line fill="none" stroke="#000000" stroke-width="5" x1="202.5" y1="380.5" x2="276.5" y2="417.007"/>
	<line fill="none" stroke="#000000" stroke-width="5" x1="234.5" y1="317.5" x2="300" y2="349.5"/>
</g>
</svg>
