<?xml version="1.0" encoding="utf-8"?>
<!-- Generator: Adobe Illustrator 16.0.0, SVG Export Plug-In . SVG Version: 6.00 Build 0)  -->
<!DOCTYPE svg PUBLIC "-//W3C//DTD SVG 1.1//EN" "http://www.w3.org/Graphics/SVG/1.1/DTD/svg11.dtd">
<svg version="1.1" id="Version_1.0" xmlns="http://www.w3.org/2000/svg" xmlns:xlink="http://www.w3.org/1999/xlink" x="0px"
	 y="0px" width="612px" height="792px" viewBox="0 0 612 792" enable-background="new 0 0 612 792" xml:space="preserve">

<g id="main">
	<path fill="none" stroke="#000000" stroke-width="5" d="M178.342,370.75c11.697,0,21.18,10.082,21.18,22.518"/>
	<path fill="none" stroke="#000000" stroke-width="5" d="M242.136,392.398c0,12.438-9.482,22.519-21.18,22.519
		c-11.697,0-21.182-10.081-21.182-22.519"/>
	<path fill="none" stroke="#000000" stroke-width="5" d="M242.136,393.268c0-12.436,9.483-22.518,21.182-22.518
		c11.697,0,21.179,10.082,21.179,22.518"/>
	<path fill="none" stroke="#000000" stroke-width="5" d="M326.857,392.398c0,12.438-9.483,22.519-21.18,22.519
		c-11.698,0-21.181-10.081-21.181-22.519"/>
	<path fill="none" stroke="#000000" stroke-width="5" d="M326.857,393.268c0-12.436,9.481-22.518,21.182-22.518
		c11.698,0,21.181,10.082,21.181,22.518"/>
	<path fill="none" stroke="#000000" stroke-width="5" d="M411.579,392.398c0,12.438-9.481,22.519-21.182,22.519
		c-11.697,0-21.18-10.081-21.18-22.519"/>
	<path fill="none" stroke="#000000" stroke-width="5" d="M411.579,393.268c0-12.436,9.483-22.518,21.181-22.518"/>
</g>
</svg>
